<?xml version="1.0" encoding="UTF-8"?><!DOCTYPE svg PUBLIC "-//W3C//DTD SVG 1.1//EN"
        "http://www.w3.org/Graphics/SVG/1.1/DTD/svg11.dtd">
<svg xmlns="http://www.w3.org/2000/svg" xmlns:xlink="http://www.w3.org/1999/xlink">
    <defs/>

    <symbol id="averageBlock" viewBox="0 0 30 29" xmlns="http://www.w3.org/2000/svg">
        <path d="M15.9468 7.22977V14.9081L21.4252 18.1303L21.9582 17.2269L16.9981 14.2828V7.22977H15.9468Z"
        />
        <path d="M7.3692 19.7931H6.17176C8.0862 23.5274 11.9803 26.0833 16.4726 26.0833C22.8594 26.0833 28.0372 20.9158 28.0372 14.5417C28.0372 8.1675 22.8594 3 16.4726 3C10.8039 3 6.08765 7.07106 5.09838 12.4432H2.80542L5.43373 15.5909L8.06204 12.4432H6.16966C7.14421 7.65444 11.3863 4.04924 16.4726 4.04924C22.2791 4.04924 26.9859 8.74672 26.9859 14.5417C26.9859 20.3367 22.2791 25.0341 16.4726 25.0341C12.5838 25.0341 9.18696 22.9262 7.3692 19.7931Z"
        />
    </symbol>

    <symbol id="gas" viewBox="0 0 30 29" xmlns="http://www.w3.org/2000/svg">
        <path d="M16.0026 5.58873H8.72914C8.60872 5.58873 8.49324 5.63647 8.40809 5.72145C8.32295 5.80643 8.27511 5.92168 8.27511 6.04186V10.875C8.27511 10.9952 8.32295 11.1104 8.40809 11.1954C8.49324 11.2804 8.60872 11.3281 8.72914 11.3281H16.0026C16.123 11.3281 16.2385 11.2804 16.3236 11.1954C16.4088 11.1104 16.4566 10.9952 16.4566 10.875V6.04186C16.4566 5.92168 16.4088 5.80643 16.3236 5.72145C16.2385 5.63647 16.123 5.58873 16.0026 5.58873ZM15.5486 10.4213H9.18316V6.49498H15.5486V10.4213ZM12.3659 13.6294C12.3062 13.6295 12.2471 13.6412 12.192 13.6641C12.1369 13.6869 12.0868 13.7204 12.0446 13.7625C11.8352 13.9721 10.0015 15.8526 10.0015 17.3309C10.0015 18.914 11.0634 20.2014 12.3687 20.2014C13.674 20.2014 14.7336 18.918 14.7336 17.332C14.7336 15.8526 12.8971 13.9721 12.6905 13.7637C12.648 13.7209 12.5975 13.687 12.5417 13.6639C12.486 13.6409 12.4262 13.6292 12.3659 13.6294ZM12.3659 19.2963C11.5617 19.2963 10.9067 18.415 10.9067 17.332C10.9067 16.5578 11.7813 15.4062 12.3653 14.7475C12.9396 15.3978 13.8256 16.564 13.8256 17.332C13.8256 18.415 13.1723 19.2963 12.3659 19.2963ZM25.15 12.7515L22.4418 8.22592C22.3801 8.12272 22.2798 8.04821 22.1631 8.01879C22.0463 7.98936 21.9226 8.00743 21.8192 8.06902C21.7158 8.13061 21.6412 8.23068 21.6117 8.3472C21.5822 8.46373 21.6003 8.58717 21.662 8.69037L23.3379 11.4913C22.9349 11.705 22.6151 12.0473 22.4297 12.4635C22.2443 12.8798 22.2039 13.346 22.3149 13.7879C22.426 14.2297 22.682 14.6217 23.0423 14.9014C23.4026 15.181 23.8463 15.3323 24.3027 15.3309H24.3101V18.4309C24.3021 18.8653 24.1235 19.2793 23.8128 19.5837C23.5021 19.8881 23.0841 20.0586 22.6487 20.0586C22.2133 20.0586 21.7953 19.8881 21.4846 19.5837C21.1738 19.2793 20.9953 18.8653 20.9872 18.4309V12.986C20.9856 12.3849 20.773 11.8033 20.3866 11.3423C20.0001 10.8812 19.464 10.5698 18.8715 10.4621V4.75781C18.8715 4.3372 18.704 3.93381 18.406 3.63639C18.108 3.33896 17.7038 3.17188 17.2824 3.17188H7.45276C7.03131 3.17188 6.62712 3.33896 6.32911 3.63639C6.0311 3.93381 5.86368 4.3372 5.86368 4.75781V22.5033H5.66901C5.39808 22.5033 5.13825 22.6107 4.94667 22.8019C4.75509 22.9931 4.64746 23.2525 4.64746 23.5229V24.8086C4.64746 25.079 4.75509 25.3383 4.94667 25.5295C5.13825 25.7207 5.39808 25.8281 5.66901 25.8281H19.0627C19.3337 25.8281 19.5935 25.7207 19.7851 25.5295C19.9766 25.3383 20.0843 25.079 20.0843 24.8086V23.524C20.0843 23.2536 19.9766 22.9943 19.7851 22.8031C19.5935 22.6119 19.3337 22.5045 19.0627 22.5045H18.8686V11.391C19.2155 11.4911 19.5206 11.7005 19.7383 11.988C19.956 12.2755 20.0746 12.6256 20.0763 12.986V18.4309C20.0864 19.1044 20.3615 19.7469 20.8423 20.2197C21.3231 20.6924 21.9709 20.9574 22.6458 20.9574C23.3208 20.9574 23.9686 20.6924 24.4494 20.2197C24.9302 19.7469 25.2053 19.1044 25.2153 18.4309V12.986C25.2154 12.9034 25.1928 12.8223 25.15 12.7515ZM19.1768 23.524V24.8086C19.1768 24.8386 19.1648 24.8675 19.1436 24.8887C19.1223 24.9099 19.0934 24.9219 19.0633 24.9219H5.66958C5.63948 24.9219 5.61061 24.9099 5.58932 24.8887C5.56804 24.8675 5.55608 24.8386 5.55608 24.8086V23.524C5.55608 23.4939 5.56804 23.4651 5.58932 23.4439C5.61061 23.4226 5.63948 23.4107 5.66958 23.4107H19.0633C19.0934 23.4107 19.1223 23.4226 19.1436 23.4439C19.1648 23.4651 19.1768 23.4939 19.1768 23.524ZM6.77173 22.5045V4.75781C6.77173 4.57755 6.84348 4.40467 6.9712 4.2772C7.09892 4.14973 7.27214 4.07812 7.45276 4.07812H17.2801C17.4607 4.07812 17.634 4.14973 17.7617 4.2772C17.8894 4.40467 17.9611 4.57755 17.9611 4.75781V22.5033L6.77173 22.5045ZM24.3084 14.4247C24.0507 14.4266 23.8001 14.3411 23.5976 14.182C23.3951 14.0229 23.2529 13.7998 23.1943 13.5494C23.1358 13.299 23.1643 13.0361 23.2753 12.804C23.3863 12.5719 23.5731 12.3844 23.805 12.2723L24.3084 13.1129V14.4247Z"
        />
    </symbol>

    <symbol id="gitHub" viewBox="0 0 29 29" xmlns="http://www.w3.org/2000/svg">
        <g clip-path="url(#clip0_96_459)">
            <path d="M14.5 0C18.3456 0 22.0338 1.52767 24.753 4.24695C27.4723 6.96623 29 10.6544 29 14.5C29 18.3456 27.4723 22.0338 24.753 24.753C22.0338 27.4723 18.3456 29 14.5 29C10.6544 29 6.96623 27.4723 4.24695 24.753C1.52767 22.0338 0 18.3456 0 14.5C0 10.6544 1.52767 6.96623 4.24695 4.24695C6.96623 1.52767 10.6544 0 14.5 0ZM14.5 2.36833C7.83725 2.36833 2.41667 7.78892 2.41667 14.5C2.41356 17.0507 3.21448 19.5375 4.7056 21.6069C6.19673 23.6764 8.30219 25.2232 10.7227 26.0275C10.7588 26.0329 10.7951 26.0369 10.8315 26.0396C11.3221 26.0637 11.5058 25.7278 11.5058 25.4354L11.4888 23.3716C8.12967 24.1038 7.41917 21.7428 7.41917 21.7428C6.87058 20.3411 6.07792 19.9689 6.07792 19.9689C4.98075 19.2149 6.16008 19.2294 6.16008 19.2294C7.04217 19.2923 7.61975 19.9254 7.87108 20.2686L8.01125 20.4813C9.08908 22.3348 10.8388 21.8007 11.5275 21.4914C11.6387 20.706 11.948 20.1719 12.2936 19.8674C9.61108 19.5605 6.79083 18.5189 6.79083 13.8693C6.79083 12.5449 7.26208 11.4622 8.03542 10.6116L7.96292 10.4062C7.80825 9.91558 7.59558 8.816 8.15383 7.39983L8.2505 7.38292C8.55017 7.34425 9.57483 7.3515 11.4768 8.64442C12.462 8.37494 13.4786 8.2376 14.5 8.236C15.5271 8.24083 16.5614 8.37617 17.5257 8.64683C19.8336 7.076 20.8462 7.39983 20.8462 7.39983C21.5035 9.07217 21.0878 10.3047 20.967 10.614C21.7403 11.4598 22.2068 12.5449 22.2068 13.8693C22.2068 18.5334 19.3817 19.5581 16.6895 19.8578C17.1245 20.2323 17.5112 20.9743 17.5112 22.1053L17.4967 25.4354C17.4967 25.7496 17.7021 26.1169 18.2773 26.0275C20.6978 25.2232 22.8033 23.6764 24.2944 21.6069C25.7855 19.5375 26.5864 17.0507 26.5833 14.5C26.5833 7.78892 21.1628 2.36833 14.5 2.36833Z"
            />
        </g>
        <defs>
            <clipPath id="clip0_96_459">
                <rect width="29" height="29" fill="white"/>
            </clipPath>
        </defs>
    </symbol>

    <symbol id="line" viewBox="0 0 1277 1" xmlns="http://www.w3.org/2000/svg">
        <path d="M0 0.5L1277 0.5" stroke="url(#paint0_linear_96_214)"/>
        <defs>
            <linearGradient id="paint0_linear_96_214" x1="-24.9996" y1="-21.5091" x2="1304" y2="33.445"
                            gradientUnits="userSpaceOnUse">
                <stop stop-color="white"/>
                <stop offset="1" stop-color="white" stop-opacity="0"/>
            </linearGradient>
        </defs>
    </symbol>

    <symbol id="path" width="24" height="6" viewBox="0 0 24 6" xmlns="http://www.w3.org/2000/svg">
        <path d="M18.3333 3C18.3333 4.47276 19.5272 5.66667 21 5.66667C22.4728 5.66667 23.6667 4.47276 23.6667 3C23.6667 1.52724 22.4728 0.333333 21 0.333333C19.5272 0.333333 18.3333 1.52724 18.3333 3ZM0 3.5H21V2.5H0V3.5Z"
        />
    </symbol>

    <symbol id="search" viewBox="0 0 29 29" xmlns="http://www.w3.org/2000/svg">
        <g clip-path="url(#clip0_96_133)">
            <path d="M11.1514 22.3027C8.94583 22.3027 6.78983 21.6487 4.956 20.4234C3.12217 19.198 1.69287 17.4564 0.848851 15.4188C0.0048317 13.3812 -0.216002 11.139 0.214275 8.97584C0.644553 6.81269 1.70662 4.8257 3.26616 3.26616C4.82571 1.70661 6.81269 0.644549 8.97584 0.214271C11.139 -0.216006 13.3812 0.00482789 15.4188 0.848848C17.4564 1.69287 19.198 3.12217 20.4234 4.956C21.6487 6.78983 22.3027 8.94583 22.3027 11.1514C22.3027 12.6158 22.0143 14.0659 21.4539 15.4188C20.8935 16.7717 20.0721 18.0011 19.0366 19.0366C18.0011 20.0721 16.7717 20.8935 15.4188 21.4539C14.0659 22.0143 12.6158 22.3027 11.1514 22.3027ZM11.1514 2.23027C9.38694 2.23027 7.66214 2.75349 6.19507 3.73375C4.72801 4.71401 3.58457 6.10729 2.90935 7.73741C2.23414 9.36752 2.05747 11.1613 2.40169 12.8918C2.74591 14.6223 3.59557 16.2119 4.8432 17.4595C6.09084 18.7072 7.68042 19.5568 9.41094 19.901C11.1415 20.2453 12.9352 20.0686 14.5653 19.3934C16.1954 18.7182 17.5887 17.5747 18.569 16.1076C19.5492 14.6406 20.0724 12.9158 20.0724 11.1514C20.0724 8.78534 19.1325 6.51623 17.4595 4.8432C15.7865 3.17017 13.5174 2.23027 11.1514 2.23027Z"/>
            <path d="M27.8782 28.9933C27.7314 28.9941 27.5859 28.966 27.4501 28.9105C27.3142 28.855 27.1906 28.7732 27.0864 28.6699L18.1654 19.7488C18.0614 19.6448 17.9789 19.5214 17.9226 19.3855C17.8664 19.2497 17.8374 19.1041 17.8374 18.9571C17.8374 18.81 17.8664 18.6644 17.9226 18.5286C17.9789 18.3927 18.0614 18.2693 18.1654 18.1653C18.2693 18.0613 18.3928 17.9789 18.5286 17.9226C18.6645 17.8663 18.8101 17.8374 18.9571 17.8374C19.1041 17.8374 19.2497 17.8663 19.3856 17.9226C19.5214 17.9789 19.6449 18.0613 19.7488 18.1653L28.6699 27.0864C28.7745 27.1901 28.8574 27.3134 28.914 27.4493C28.9706 27.5852 28.9998 27.7309 28.9998 27.8781C28.9998 28.0254 28.9706 28.1711 28.914 28.307C28.8574 28.4429 28.7745 28.5662 28.6699 28.6699C28.5657 28.7732 28.4422 28.855 28.3063 28.9105C28.1704 28.966 28.0249 28.9941 27.8782 28.9933Z"/>
        </g>
        <defs>
            <clipPath id="clip0_96_133">
                <rect width="29" height="29"/>
            </clipPath>
        </defs>
    </symbol>

    <symbol id="totalBlocks" viewBox="0 0 29 29" xmlns="http://www.w3.org/2000/svg">
        <path d="M6.55251 7.57219C6.55251 7.65863 6.56091 7.74258 6.57755 7.82439L3.34477 9.75604C3.12245 9.57107 2.83723 9.45959 2.52801 9.45959C1.82463 9.45959 1.24609 10.0373 1.24609 10.7407C1.24609 11.2938 1.60394 11.7695 2.09876 11.9474V20.2219C1.60389 20.4007 1.24609 20.8788 1.24609 21.432C1.24609 22.1354 1.82462 22.7131 2.52801 22.7131C3.08223 22.7131 3.55846 22.3542 3.73561 21.8579H12.0076C12.1855 22.3543 12.6642 22.7131 13.2185 22.7131C13.7728 22.7131 14.2498 22.3543 14.4269 21.8579H19.9555C20.1326 22.3543 20.6088 22.7131 21.1631 22.7131C21.8665 22.7131 22.4483 22.1354 22.4483 21.432C22.4483 21.3449 22.4384 21.2597 22.4216 21.1773L25.6552 19.2456C25.8777 19.4317 26.1624 19.5438 26.472 19.5438C27.1754 19.5438 27.7539 18.9627 27.7539 18.2593C27.7539 17.7061 27.3962 17.2304 26.9012 17.0526V13.9108C27.3962 13.7321 27.7539 13.254 27.7539 12.7007C27.7539 11.9974 27.1754 11.4196 26.472 11.4196C25.9177 11.4196 25.4415 11.7784 25.2644 12.2748H19.735C19.6053 11.913 19.3161 11.6248 18.9542 11.4948V8.77812C19.4498 8.60016 19.8093 8.12535 19.8093 7.57219C19.8093 6.86881 19.2283 6.28696 18.5249 6.28696C17.9717 6.28696 17.496 6.64716 17.3181 7.14293H9.04369C8.86582 6.64711 8.3902 6.28696 7.83693 6.28696C7.13355 6.28696 6.5525 6.86881 6.55251 7.57219ZM9.04453 7.99812H16.9783L14.0353 9.75604C13.8129 9.57107 13.5277 9.45959 13.2185 9.45959C12.6655 9.45959 12.1882 9.81688 12.0092 10.3114H8.26285V8.77981C8.62583 8.65036 8.91499 8.36101 9.04453 7.99812ZM7.02018 8.55681C7.13471 8.65173 7.26545 8.72705 7.40768 8.77812V10.3114H4.07886L7.02018 8.55681ZM17.7098 8.55767C17.8246 8.65285 17.9554 8.72886 18.0982 8.77981V11.4932C17.6018 11.6703 17.243 12.1465 17.243 12.7007C17.243 12.7877 17.252 12.873 17.2689 12.9554L14.0336 14.8854C13.9187 14.7898 13.7874 14.7136 13.6444 14.6625V11.9491C14.141 11.7721 14.5004 11.2951 14.5004 10.7407C14.5004 10.6539 14.4912 10.5697 14.4745 10.4876L17.7098 8.55767ZM3.73562 11.1675H7.40768V17.0526C6.91198 17.2305 6.5525 17.7061 6.55251 18.2593C6.55251 18.3465 6.56139 18.4322 6.57838 18.5149L3.34309 20.444C3.22835 20.3485 3.09667 20.2722 2.95392 20.221V11.9491C3.31661 11.8196 3.60607 11.5301 3.73562 11.1675ZM8.26285 11.1675H12.0084C12.1382 11.529 12.4274 11.8176 12.7892 11.9475V14.6641C12.2936 14.8429 11.9341 15.3203 11.9341 15.8734C11.9341 16.4266 12.2935 16.9022 12.7892 17.0802V17.8334H9.04453C8.915 17.4706 8.62577 17.1812 8.26285 17.0517V11.1675ZM19.7342 13.13H24.9212L21.9798 14.8846C21.7571 14.6998 21.4715 14.589 21.1631 14.589C20.6098 14.589 20.135 14.9484 19.9572 15.4441H18.9542V13.9108C19.3154 13.7806 19.604 13.4912 19.7342 13.13ZM25.6552 13.687C25.7705 13.7835 25.9024 13.8602 26.0461 13.9117V17.0517C25.6833 17.1812 25.3938 17.4706 25.2644 17.8334H21.5923V17.0802C22.0882 16.9023 22.4483 16.4267 22.4483 15.8734C22.4483 15.7863 22.4385 15.7011 22.4216 15.6187L25.6552 13.687ZM17.7082 13.6879C17.8232 13.7841 17.9548 13.8603 18.0982 13.9117V15.4442H14.7693L17.7082 13.6879ZM14.4269 16.2993H18.0982V17.0518C17.7354 17.1812 17.4459 17.4707 17.3165 17.8335H13.6444V17.081C14.0074 16.9516 14.2974 16.6623 14.4269 16.2993ZM18.9542 16.2993H19.9555C20.0849 16.6621 20.3744 16.9515 20.7372 17.081V17.8335H19.735C19.6053 17.4717 19.3162 17.1826 18.9542 17.0526V16.2993ZM9.0437 18.6886H12.7892V20.2219C12.4281 20.3522 12.1394 20.6416 12.0092 21.0028H4.07802L7.01851 19.2457C7.24164 19.4317 7.52733 19.5438 7.83693 19.5438C8.39021 19.5438 8.86583 19.1845 9.0437 18.6886ZM13.6444 18.6886H16.9766L14.0336 20.4441C13.9187 20.3484 13.7873 20.2723 13.6444 20.2211V18.6886ZM19.7342 18.6886H20.7372V20.2211C20.3753 20.3509 20.0871 20.6407 19.9572 21.0028H14.7693L17.7082 19.2465C17.9305 19.4322 18.2157 19.5438 18.5249 19.5438C19.0782 19.5438 19.5555 19.1845 19.7342 18.6886ZM21.5923 18.6886H24.922L21.9815 20.4449C21.8668 20.3493 21.7349 20.2733 21.5923 20.2219V18.6886Z"/>
    </symbol>

    

    <symbol id="totalTransaction" viewBox="0 0 30 29" xmlns="http://www.w3.org/2000/svg">
        <path d="M23.8457 12.279H6.22619C5.99254 12.279 5.76846 12.1864 5.60325 12.0215C5.43803 11.8566 5.34521 11.6329 5.34521 11.3998C5.34521 11.1666 5.43803 10.9429 5.60325 10.778C5.76846 10.6132 5.99254 10.5205 6.22619 10.5205H21.7226L19.6963 8.50708C19.5304 8.34152 19.4372 8.11697 19.4372 7.88283C19.4372 7.64869 19.5304 7.42414 19.6963 7.25857C19.8622 7.09301 20.0872 7 20.3218 7C20.5564 7 20.7814 7.09301 20.9473 7.25857L24.4712 10.7755C24.5935 10.8991 24.6763 11.0562 24.7092 11.2267C24.7421 11.3973 24.7237 11.5737 24.6562 11.7339C24.5901 11.8944 24.4779 12.0319 24.3337 12.1289C24.1894 12.2259 24.0196 12.2781 23.8457 12.279Z"/>
        <path d="M9.74996 22.1615C9.63402 22.1622 9.51909 22.14 9.41175 22.0963C9.30442 22.0525 9.20679 21.988 9.12447 21.9066L5.60057 18.3896C5.47832 18.266 5.39551 18.109 5.36259 17.9384C5.32966 17.7679 5.3481 17.5914 5.41556 17.4313C5.48165 17.2707 5.59389 17.1333 5.73812 17.0362C5.88235 16.9392 6.05213 16.887 6.22606 16.8861H23.8456C24.0792 16.8861 24.3033 16.9788 24.4685 17.1437C24.6337 17.3085 24.7266 17.5322 24.7266 17.7654C24.7266 17.9986 24.6337 18.2222 24.4685 18.3871C24.3033 18.552 24.0792 18.6446 23.8456 18.6446H8.34921L10.3755 20.658C10.458 20.7398 10.5236 20.837 10.5683 20.9442C10.613 21.0513 10.636 21.1662 10.636 21.2823C10.636 21.3984 10.613 21.5133 10.5683 21.6204C10.5236 21.7276 10.458 21.8248 10.3755 21.9066C10.2931 21.988 10.1955 22.0525 10.0882 22.0963C9.98084 22.14 9.86591 22.1622 9.74996 22.1615Z"/>
    </symbol>

    <symbol id="twitter" viewBox="0 0 29 29" xmlns="http://www.w3.org/2000/svg">
        <g clip-path="url(#clip0_96_461)">
            <path d="M14.5 0C6.49153 0 0 6.49153 0 14.5C0 22.5085 6.49153 29 14.5 29C22.5085 29 29 22.5085 29 14.5C29 6.49153 22.5085 0 14.5 0ZM14.5 26.7344C7.74294 26.7344 2.26562 21.2571 2.26562 14.5C2.26562 7.74294 7.74294 2.26562 14.5 2.26562C21.2571 2.26562 26.7344 7.74294 26.7344 14.5C26.7344 21.2571 21.2571 26.7344 14.5 26.7344Z"
            />
            <path d="M21.7501 9.68113C21.5058 9.82624 20.7731 10.1156 20.0898 10.1882C20.5279 9.93386 21.1766 9.10056 21.3368 8.4386C20.9156 8.72798 19.9482 9.15012 19.4705 9.15012C19.4705 9.15012 19.4705 9.15143 19.4714 9.15233C18.926 8.53857 18.1595 8.15625 17.3081 8.15625C15.6568 8.15625 14.3169 9.59838 14.3169 11.3777C14.3169 11.6246 14.3442 11.8645 14.3938 12.0954H14.3928C12.152 12.0335 9.53245 10.8241 8.05622 8.75364C7.14997 10.4445 7.93411 12.3246 8.96332 13.0097C8.61198 13.0389 7.96243 12.9663 7.65713 12.6468C7.63589 13.7681 8.13767 15.255 9.96439 15.7938C9.61203 15.9983 8.99074 15.9399 8.7192 15.8947C8.81475 16.8434 10.0467 18.0823 11.3928 18.0823C10.913 18.679 9.27592 19.7649 7.25 19.4188C8.62631 20.3216 10.2308 20.8438 11.929 20.8438C16.7551 20.8438 20.5031 16.632 20.3013 11.4361C20.3013 11.4299 20.2995 11.4237 20.2995 11.4184C20.2995 11.4042 20.3013 11.3901 20.3013 11.3777C20.3013 11.3618 20.2995 11.3459 20.2995 11.329C20.7385 11.0069 21.3279 10.4351 21.7501 9.68113Z"
            />
        </g>
        <defs>
            <clipPath id="clip0_96_461">
                <rect width="29" height="29" fill="white"/>
            </clipPath>
        </defs>
    </symbol>

    <symbol id="wallet" viewBox="0 0 30 29" xmlns="http://www.w3.org/2000/svg">
        <path d="M25.7174 14.3168H24.7559V9.90269C24.7559 8.84445 23.8933 7.98354 22.8329 7.98354H21.5307L20.1981 5.59228C19.995 5.22683 19.6085 5 19.1893 5C18.9939 5 18.8001 5.05029 18.6289 5.14507L13.5146 7.98348H7.80186C6.74153 7.98348 5.87891 8.84439 5.87891 9.90263V23.0808C5.87891 24.139 6.74153 24.9999 7.80186 24.9999H22.8329C23.8933 24.9999 24.7559 24.139 24.7559 23.0808V19.2106H25.7174V14.3168ZM22.8329 8.75116C23.4252 8.75116 23.909 9.20022 23.974 9.77482H22.5287L21.9587 8.75116H22.8329ZM19.0031 5.816C19.1835 5.71507 19.4262 5.78566 19.5258 5.96495L21.6487 9.77446H11.8701L19.0031 5.816ZM23.9867 23.0808C23.9867 23.7156 23.469 24.2323 22.8329 24.2323H7.80186C7.16575 24.2323 6.64805 23.7156 6.64805 23.0808V9.90269C6.64805 9.26783 7.16575 8.75116 7.80186 8.75116H12.1316L10.2871 9.77488H8.04225C7.82957 9.77488 7.65764 9.94682 7.65764 10.1587C7.65764 10.3706 7.82957 10.5426 8.04225 10.5426H8.90373H22.9564H23.9867V14.3171H21.1742C19.8681 14.3171 18.8051 15.3781 18.8051 16.6815V16.8466C18.8051 18.1501 19.8681 19.211 21.1742 19.211H23.9867V23.0808ZM24.9482 18.4429H24.7559H21.1742C20.2919 18.4429 19.5742 17.7267 19.5742 16.8462V16.6811C19.5742 15.8006 20.2919 15.0843 21.1742 15.0843H24.7559H24.9482V18.4429ZM22.3522 16.7952C22.3522 17.2635 21.9722 17.6427 21.503 17.6427C21.0338 17.6427 20.6539 17.2634 20.6539 16.7952C20.6539 16.3269 21.0339 15.9477 21.503 15.9477C21.9722 15.9476 22.3522 16.3272 22.3522 16.7952Z"
        />
    </symbol>


    <symbol id="fire" viewBox="0 0 20 20" xmlns="http://www.w3.org/2000/svg">
        <path d="M16.291 9.16404C15.9118 8.31063 15.3606 7.54466 14.6719 6.91404L14.1035 6.39255C14.0842 6.37533 14.061 6.36311 14.0359 6.35697C14.0107 6.35082 13.9845 6.35093 13.9594 6.35729C13.9344 6.36366 13.9112 6.37608 13.8921 6.39346C13.8729 6.41085 13.8584 6.43267 13.8496 6.45701L13.5957 7.18552C13.4375 7.64255 13.1465 8.10935 12.7344 8.56834C12.707 8.59763 12.6758 8.60545 12.6543 8.6074C12.6328 8.60935 12.5996 8.60545 12.5703 8.5781C12.543 8.55466 12.5293 8.51951 12.5312 8.48435C12.6035 7.30857 12.252 5.9824 11.4824 4.53904C10.8457 3.33982 9.96094 2.40427 8.85547 1.75193L8.04883 1.27732C7.94336 1.21482 7.80859 1.29685 7.81445 1.4199L7.85742 2.3574C7.88672 2.99802 7.8125 3.56443 7.63672 4.03513C7.42188 4.6113 7.11328 5.14646 6.71875 5.62693C6.44419 5.96084 6.13299 6.26287 5.79102 6.52732C4.96739 7.16046 4.29768 7.97172 3.83203 8.90037C3.36753 9.83711 3.12557 10.8685 3.125 11.914C3.125 12.8359 3.30664 13.7285 3.66602 14.5703C4.01302 15.3808 4.51379 16.1163 5.14063 16.7363C5.77344 17.3613 6.50781 17.8535 7.32617 18.1953C8.17383 18.5508 9.07227 18.7304 10 18.7304C10.9277 18.7304 11.8262 18.5508 12.6738 18.1972C13.4902 17.8574 14.2325 17.3619 14.8594 16.7383C15.4922 16.1133 15.9883 15.3828 16.334 14.5722C16.6928 13.7327 16.8769 12.829 16.875 11.916C16.875 10.9629 16.6797 10.0371 16.291 9.16404ZM13.9258 15.791C12.877 16.8301 11.4844 17.4004 10 17.4004C8.51562 17.4004 7.12305 16.8301 6.07422 15.791C5.0293 14.7539 4.45312 13.3789 4.45312 11.916C4.45312 11.0664 4.64453 10.2519 5.02148 9.49412C5.38867 8.75388 5.93555 8.09177 6.59961 7.58201C7.02312 7.25817 7.40725 6.88584 7.74414 6.47263C8.23242 5.87693 8.61523 5.21287 8.88086 4.49998C8.98982 4.20591 9.06899 3.90165 9.11719 3.59177C9.58789 4.02537 9.98242 4.5488 10.3125 5.16209C10.9648 6.38474 11.2656 7.47263 11.207 8.39841C11.193 8.61645 11.2286 8.83483 11.3112 9.03713C11.3937 9.23942 11.5211 9.42038 11.6836 9.56638C11.8245 9.69362 11.9892 9.7916 12.1682 9.85464C12.3473 9.91767 12.5371 9.9445 12.7266 9.93357C13.1113 9.91404 13.4648 9.74412 13.7227 9.45701C13.9824 9.16599 14.207 8.86912 14.3945 8.56638C14.668 8.91599 14.8965 9.29685 15.0781 9.70701C15.3887 10.4062 15.5469 11.1504 15.5469 11.916C15.5469 13.3789 14.9707 14.7558 13.9258 15.791Z" />
    </symbol>

    <svg id="infoSVG"  width="24" height="24" viewBox="0 0 24 24" fill="none" xmlns="http://www.w3.org/2000/svg">
        <path d="M12 22.75C6.07 22.75 1.25 17.93 1.25 12C1.25 6.07 6.07 1.25 12 1.25C17.93 1.25 22.75 6.07 22.75 12C22.75 17.93 17.93 22.75 12 22.75ZM12 2.75C6.9 2.75 2.75 6.9 2.75 12C2.75 17.1 6.9 21.25 12 21.25C17.1 21.25 21.25 17.1 21.25 12C21.25 6.9 17.1 2.75 12 2.75Z" fill="white"/>
        <path d="M12 13.75C11.59 13.75 11.25 13.41 11.25 13V8C11.25 7.59 11.59 7.25 12 7.25C12.41 7.25 12.75 7.59 12.75 8V13C12.75 13.41 12.41 13.75 12 13.75Z" fill="white"/>
        <path d="M12 16.9999C11.87 16.9999 11.74 16.9699 11.62 16.9199C11.5 16.8699 11.39 16.7999 11.29 16.7099C11.2 16.6099 11.13 16.5099 11.08 16.3799C11.03 16.2599 11 16.1299 11 15.9999C11 15.8699 11.03 15.7399 11.08 15.6199C11.13 15.4999 11.2 15.3899 11.29 15.2899C11.39 15.1999 11.5 15.1299 11.62 15.0799C11.86 14.9799 12.14 14.9799 12.38 15.0799C12.5 15.1299 12.61 15.1999 12.71 15.2899C12.8 15.3899 12.87 15.4999 12.92 15.6199C12.97 15.7399 13 15.8699 13 15.9999C13 16.1299 12.97 16.2599 12.92 16.3799C12.87 16.5099 12.8 16.6099 12.71 16.7099C12.61 16.7999 12.5 16.8699 12.38 16.9199C12.26 16.9699 12.13 16.9999 12 16.9999Z" fill="white"/>
    </svg>

    <svg id="lightening" width="24" height="24" viewBox="0 0 24 24" fill="none" xmlns="http://www.w3.org/2000/svg">
        <path d="M7.3204 3.19307C7.22314 3.17264 7.12174 3.19165 7.03849 3.24593C6.95524 3.30022 6.89694 3.38533 6.8764 3.48257L6.17177 6.83545C6.1524 6.93233 6.17204 7.03294 6.22642 7.11543C6.28081 7.19791 6.36556 7.2556 6.46224 7.27595C6.55892 7.2963 6.65973 7.27768 6.74275 7.22413C6.82578 7.17057 6.88432 7.08642 6.90565 6.98994L7.61027 3.63744C7.62044 3.58923 7.62101 3.53949 7.61194 3.49106C7.60287 3.44262 7.58435 3.39645 7.55743 3.35519C7.53051 3.31392 7.49572 3.27836 7.45505 3.25054C7.41437 3.22272 7.36862 3.20319 7.3204 3.19307Z" fill="#FFBD11"/>
        <path d="M6.22123 8.42557C6.17304 8.41539 6.12332 8.41481 6.07491 8.42386C6.0265 8.4329 5.98034 8.45139 5.93908 8.47828C5.89781 8.50516 5.86225 8.53991 5.83441 8.58054C5.80658 8.62116 5.78702 8.66688 5.77685 8.71507L4.49698 14.8051C4.47644 14.9024 4.4954 15.0039 4.54969 15.0872C4.60398 15.1705 4.68916 15.2289 4.78648 15.2494C4.88379 15.27 4.98528 15.251 5.06862 15.1967C5.15196 15.1424 5.21031 15.0573 5.23085 14.9599L6.51073 8.86957C6.53116 8.7723 6.51214 8.67091 6.45786 8.58765C6.40358 8.5044 6.31847 8.4461 6.22123 8.42557Z" fill="#FFBD11"/>
        <path d="M16.6313 15.0058C16.5851 14.9885 16.536 14.9805 16.4868 14.9822C16.4375 14.9838 16.3891 14.9952 16.3442 15.0156C16.2993 15.036 16.259 15.0651 16.2253 15.1011C16.1917 15.1371 16.1655 15.1794 16.1483 15.2256L15.1733 17.8311C15.1409 17.9237 15.1461 18.0252 15.1878 18.114C15.2294 18.2028 15.3042 18.2717 15.396 18.306C15.4878 18.3403 15.5895 18.3373 15.6791 18.2976C15.7688 18.2579 15.8393 18.1847 15.8756 18.0936L16.8506 15.4881C16.8854 15.395 16.8818 15.292 16.8407 15.2016C16.7996 15.1112 16.7242 15.0408 16.6313 15.0058Z" fill="#FFBD11"/>
        <path d="M19.2675 7.9608C19.1744 7.92594 19.0712 7.92951 18.9807 7.97072C18.8902 8.01193 18.8197 8.08741 18.7849 8.18055L16.6575 13.8652C16.639 13.9116 16.63 13.9612 16.6309 14.0111C16.6319 14.061 16.6428 14.1102 16.663 14.1559C16.6832 14.2015 16.7123 14.2427 16.7487 14.2769C16.785 14.3112 16.8278 14.3378 16.8746 14.3553C16.9213 14.3728 16.9711 14.3807 17.021 14.3787C17.0709 14.3767 17.1199 14.3647 17.1651 14.3435C17.2103 14.3223 17.2508 14.2923 17.2843 14.2552C17.3177 14.2182 17.3434 14.1748 17.3599 14.1277L19.4873 8.44342C19.5221 8.35028 19.5185 8.24711 19.4773 8.1566C19.4361 8.06609 19.3606 7.99566 19.2675 7.9608Z" fill="#FFBD11"/>
        <path d="M17.2526 7.53487C17.2181 7.4851 17.172 7.44443 17.1184 7.41634C17.0647 7.38826 17.005 7.3736 16.9444 7.37362H13.6125L15.6394 2.00775C15.6609 1.95097 15.6683 1.88981 15.6609 1.82955C15.6536 1.76928 15.6317 1.7117 15.5972 1.66176C15.5626 1.61182 15.5165 1.571 15.4627 1.54283C15.4089 1.51465 15.3491 1.49995 15.2884 1.5H9.89665C9.81058 1.49996 9.72712 1.52953 9.66027 1.58375C9.59342 1.63796 9.54726 1.71353 9.52952 1.79775L7.23752 12.7125C7.22289 12.7821 7.22833 12.8544 7.25322 12.921C7.27811 12.9876 7.32142 13.0457 7.3781 13.0886C7.43478 13.1316 7.5025 13.1575 7.57335 13.1634C7.6442 13.1693 7.71527 13.1549 7.77827 13.122L10.224 11.8406L11.1926 22.1591C11.2006 22.2436 11.237 22.3228 11.2958 22.384C11.3546 22.4451 11.4325 22.4845 11.5165 22.4956C11.6006 22.5068 11.686 22.4892 11.7588 22.4456C11.8316 22.4019 11.8874 22.3349 11.9171 22.2555L17.2958 7.88025C17.317 7.82348 17.3242 7.76241 17.3167 7.70226C17.3092 7.64211 17.2872 7.58467 17.2526 7.53487Z" fill="#FFBD11"/>
    </svg>

    <svg id="expend_svg" width="9" height="7" viewBox="0 0 9 7" fill="none" xmlns="http://www.w3.org/2000/svg">
        <path d="M7.90908 0.928711H4.09497H0.660442C0.072714 0.928711 -0.22115 1.70931 0.195157 2.1669L3.36644 5.65267C3.87458 6.2112 4.70107 6.2112 5.20921 5.65267L6.41528 4.327L8.38049 2.1669C8.79068 1.70931 8.49681 0.928711 7.90908 0.928711Z" fill="black"/>
    </svg>
    
    <svg id="expend_svg1" width="9" height="7" viewBox="0 0 9 7" fill="none" xmlns="http://www.w3.org/2000/svg">
        <path d="M7.90908 0.928711H4.09497H0.660442C0.072714 0.928711 -0.22115 1.70931 0.195157 2.1669L3.36644 5.65267C3.87458 6.2112 4.70107 6.2112 5.20921 5.65267L6.41528 4.327L8.38049 2.1669C8.79068 1.70931 8.49681 0.928711 7.90908 0.928711Z" fill="white"/>
    </svg>


    <symbol id = "dynamicarrow" width="9" height="12" viewBox="0 0 9 12" fill="none" xmlns="http://www.w3.org/2000/svg">
        <path d="M3.53033 0.487353L2.26396 1.75372L0.200485 3.8172C-0.230209 4.25432 0.0783478 5 0.695462 5L4.70028 5L8.30654 5C8.92365 5 9.23221 4.25432 8.79508 3.8172L5.46524 0.487353C4.93812 -0.0461931 4.06388 -0.0461931 3.53033 0.487353Z" fill="white"/>
        <path d="M8.30454 7H4.29972H0.693464C0.0763497 7 -0.232207 7.74568 0.204915 8.1828L3.53476 11.5126C4.06831 12.0462 4.93612 12.0462 5.46967 11.5126L6.73604 10.2463L8.79952 8.1828C9.23021 7.74568 8.92165 7 8.30454 7Z" fill="white"/>
    </symbol>


    <symbol id="arrow_svg" width="24" height="24" viewBox="0 0 24 24" fill="none" xmlns="http://www.w3.org/2000/svg">
        <path d="M14.43 18.8201C14.24 18.8201 14.05 18.7501 13.9 18.6001C13.61 18.3101 13.61 17.8301 13.9 17.5401L19.44 12.0001L13.9 6.46012C13.61 6.17012 13.61 5.69012 13.9 5.40012C14.19 5.11012 14.67 5.11012 14.96 5.40012L21.03 11.4701C21.32 11.7601 21.32 12.2401 21.03 12.5301L14.96 18.6001C14.81 18.7501 14.62 18.8201 14.43 18.8201Z" fill="white"/>
        <path d="M20.33 12.75H3.5C3.09 12.75 2.75 12.41 2.75 12C2.75 11.59 3.09 11.25 3.5 11.25H20.33C20.74 11.25 21.08 11.59 21.08 12C21.08 12.41 20.74 12.75 20.33 12.75Z" fill="white"/>
    </symbol>

    <symbol id="contract" viewBox="0 0 21 21" fill="none" xmlns="http://www.w3.org/2000/svg">
        <circle cx="10.5" cy="10.5" r="10.5" fill="#4C5157"/>
        <path d="M8.44 10.304C8.44 10.6667 8.488 11.0347 8.584 11.408C8.68 11.7707 8.82933 12.1013 9.032 12.4C9.24533 12.688 9.52267 12.928 9.864 13.12C10.2053 13.3013 10.6213 13.392 11.112 13.392C11.7413 13.392 12.248 13.2533 12.632 12.976C13.016 12.6987 13.2667 12.304 13.384 11.792H16.184C16.1307 12.5067 15.9547 13.136 15.656 13.68C15.3573 14.224 14.9733 14.6773 14.504 15.04C14.0453 15.4027 13.5173 15.6747 12.92 15.856C12.3333 16.0373 11.72 16.128 11.08 16.128C10.2053 16.128 9.416 15.9947 8.712 15.728C8.01867 15.4613 7.42667 15.0773 6.936 14.576C6.456 14.0747 6.088 13.4667 5.832 12.752C5.576 12.0267 5.448 11.216 5.448 10.32C5.448 9.43467 5.58133 8.63467 5.848 7.92C6.11467 7.20533 6.49333 6.59733 6.984 6.096C7.47467 5.59467 8.06667 5.21067 8.76 4.944C9.45333 4.66667 10.2213 4.528 11.064 4.528C11.7147 4.528 12.328 4.61867 12.904 4.8C13.4907 4.98133 14.0027 5.25333 14.44 5.616C14.888 5.968 15.2507 6.416 15.528 6.96C15.816 7.504 15.992 8.144 16.056 8.88H13.32C13.192 8.368 12.9467 7.97333 12.584 7.696C12.232 7.408 11.736 7.264 11.096 7.264C10.6053 7.264 10.1893 7.35467 9.848 7.536C9.50667 7.70667 9.22933 7.936 9.016 8.224C8.81333 8.512 8.664 8.83733 8.568 9.2C8.48267 9.56267 8.44 9.93067 8.44 10.304Z" fill="#3CE2EC"/>
    </symbol>
    
    <symbol id="uparrow" width="13" height="7" viewBox="0 0 13 7" fill="none" xmlns="http://www.w3.org/2000/svg">
        <path d="M11.9954 7H6.21071H1.00167C0.110283 7 -0.33541 5.93752 0.295989 5.31469L5.10576 0.570167C5.87644 -0.190055 7.12996 -0.190055 7.90063 0.570167L9.72983 2.37455L12.7104 5.31469C13.3325 5.93752 12.8868 7 11.9954 7Z" fill="white"/>
    </symbol>

</svg>